<?xml version="1.0" encoding="UTF-8"?>
<svg width="1200pt" height="1200pt" version="1.1" viewBox="0 0 1200 1200" xmlns="http://www.w3.org/2000/svg">
 <g fill="#682079">
  <path d="m726.32 921.05h-452.63c-72.328-0.51172-141.55-29.484-192.68-80.645-51.133-51.16-80.062-120.39-80.535-192.73-0.47266-72.328 27.551-141.93 78.004-193.76 50.457-51.824 119.29-81.699 191.61-83.16 33.812 0.15625 67.434 5.1172 99.852 14.738 13.832-137.12 121.18-243.39 251.11-243.39 140.78 0 251.05 117.12 251.05 266.65v8.1484c0 10.23 0 18.949-0.39844 27.051h0.003906c30.512-13.035 63.562-19.062 96.715-17.641 129.85 0 231.58 106.34 231.58 242.11 0 7.5195-4.0117 14.469-10.527 18.23-6.5117 3.7617-14.539 3.7617-21.051 0-6.5156-3.7617-10.527-10.711-10.527-18.23 0-112.15-83.223-200-189.47-200-54.926 0-85.559 10.527-117.09 40.336-4.8047 4.5117-11.441 6.5195-17.938 5.418-6.4961-1.1016-12.105-5.1797-15.152-11.023-3.0469-5.8398-3.1797-12.773-0.36328-18.73 10.473-20.812 14.691-44.211 12.145-67.371v-8.2539c-0.019531-125.95-91.809-224.59-208.97-224.59-116.11 0-210.53 103.3-210.53 230.29h0.003906c0.015625 7.4492-3.707 14.41-9.918 18.527-6.0586 4.0391-13.773 4.6602-20.398 1.6406-34.812-14.738-72.281-22.164-110.09-21.809-61.211 1.3594-119.43 26.75-162.07 70.688-42.641 43.934-66.285 102.88-65.816 164.11 0.46484 61.223 25.008 119.8 68.312 163.08 43.309 43.281 101.91 67.781 163.13 68.207h452.63c7.5195 0 14.473 4.0117 18.23 10.523 3.7617 6.5156 3.7617 14.539 0 21.055-3.7578 6.5117-10.711 10.523-18.23 10.523z"/>
  <path d="m978.95 942.11c-13.961 0-27.348-5.5469-37.219-15.414-9.8711-9.8711-15.414-23.258-15.414-37.219 0-13.957 5.543-27.344 15.414-37.215 9.8711-9.8711 23.258-15.414 37.219-15.414 13.957 0 27.344 5.543 37.215 15.414 9.8711 9.8711 15.414 23.258 15.414 37.215 0 13.961-5.543 27.348-15.414 37.219-9.8711 9.8672-23.258 15.414-37.215 15.414zm0-63.156c-4.2578 0-8.0977 2.5625-9.7266 6.4961-1.6289 3.9336-0.73047 8.4609 2.2812 11.473 3.0117 3.0078 7.5391 3.9102 11.473 2.2812 3.9336-1.6289 6.4961-5.4688 6.4961-9.7266 0-2.7891-1.1094-5.4688-3.082-7.4414-1.9727-1.9766-4.6523-3.082-7.4414-3.082z"/>
  <path d="m1115.8 1057.9h-273.68c-5.582 0-10.938-2.2188-14.887-6.1641-3.9492-3.9492-6.168-9.3047-6.168-14.887v-242.11c0-5.5859 2.2188-10.941 6.168-14.887 3.9492-3.9492 9.3047-6.168 14.887-6.168h273.68c5.582 0 10.938 2.2188 14.887 6.168 3.9492 3.9453 6.168 9.3008 6.168 14.887v242.11c0 5.582-2.2188 10.938-6.168 14.887-3.9492 3.9453-9.3047 6.1641-14.887 6.1641zm-252.63-42.105h231.58v-200h-231.58z"/>
  <path d="m978.95 994.74c-5.5859 0-10.941-2.2188-14.887-6.168-3.9492-3.9492-6.168-9.3008-6.168-14.887v-52.633c0-7.5195 4.0117-14.469 10.527-18.23 6.5117-3.7617 14.539-3.7617 21.051 0 6.5156 3.7617 10.527 10.711 10.527 18.23v52.633c0 5.5859-2.2188 10.938-6.168 14.887-3.9453 3.9492-9.3008 6.168-14.883 6.168z"/>
  <path d="m1073.7 815.79c-5.582 0-10.938-2.2188-14.887-6.1641-3.9453-3.9492-6.1641-9.3047-6.1641-14.887v-94.738h-147.37v94.738c0 7.5195-4.0117 14.469-10.523 18.23-6.5156 3.7617-14.539 3.7617-21.055 0-6.5117-3.7617-10.527-10.711-10.527-18.23v-94.738c0-11.168 4.4375-21.875 12.336-29.773 7.8945-7.8945 18.605-12.332 29.77-12.332h147.37c11.164 0 21.875 4.4375 29.773 12.332 7.8945 7.8984 12.332 18.605 12.332 29.773v94.738c0 5.582-2.2188 10.938-6.168 14.887-3.9492 3.9453-9.3008 6.1641-14.887 6.1641z"/>
 </g>
</svg>
